<svg width="100" height="100" viewBox="0 0 100 100" fill="none" xmlns="http://www.w3.org/2000/svg">
<circle cx="50" cy="50" r="50" fill="#333333"/>
<path d="M51.7631 17.6374C53.6485 14.1209 58.6902 14.1209 60.5756 17.6374L74.7387 44.0554C76.5238 47.3861 74.1114 51.4175 70.3324 51.4177H67.6352C66.7689 51.4177 65.9994 53.1335 65.9994 53.9998V56.9998C65.9996 59.7609 68.2383 61.9996 70.9994 61.9998C73.7607 61.9998 75.9992 59.761 75.9994 56.9998V52.9998C75.9994 51.8953 76.895 50.9999 77.9994 50.9998C80.7609 50.9998 82.9994 53.2383 82.9994 55.9998V75.9998C82.9992 78.761 80.7607 80.9998 77.9994 80.9998C76.8951 80.9996 75.9996 80.104 75.9994 78.9998V74.9998C75.9994 72.2383 73.7609 69.9998 70.9994 69.9998C68.2382 69.9999 65.9994 72.2384 65.9994 74.9998V77.9998C65.9992 79.6564 64.6562 80.9998 62.9994 80.9998C60.2383 80.9996 57.9996 78.7609 57.9994 75.9998V74.2189C57.9994 71.097 54.1213 68.9998 50.9994 68.9998C44.3723 68.9995 38.9997 63.6268 38.9994 56.9998C38.9994 52.4682 41.5114 48.5232 45.2188 46.4813C47.6136 45.1623 49.5052 42.2898 48.4438 39.7703C46.7254 35.6925 40.9472 35.6924 39.2289 39.7703L35.0697 49.6423C34.6737 50.582 33.8687 51.4177 32.849 51.4177H17.0063C13.2273 51.4175 10.8149 47.3861 12.6 44.0554L26.7621 17.6374C28.6474 14.1208 33.6902 14.1209 35.5756 17.6374L39.2631 24.5144C41.1485 28.0309 46.1912 28.031 48.0766 24.5144L51.7631 17.6374ZM50.9994 50.9998C47.6859 51 44.9994 53.6862 44.9994 56.9998C44.9997 60.3131 47.686 62.9995 50.9994 62.9998C54.313 62.9998 56.9992 60.3133 56.9994 56.9998C56.9994 53.686 54.3131 50.9998 50.9994 50.9998Z" fill="#D9D9D9"/>
</svg>
